<svg preserveAspectRatio="none" width="100%" height="100%" overflow="visible" style="display: block;" viewBox="0 0 14 14" fill="none" xmlns="http://www.w3.org/2000/svg">
<g id="material-symbols:close-rounded">
<path id="Vector" d="M7 7.81667L4.14167 10.675C4.03472 10.7819 3.89861 10.8354 3.73333 10.8354C3.56806 10.8354 3.43194 10.7819 3.325 10.675C3.21806 10.5681 3.16458 10.4319 3.16458 10.2667C3.16458 10.1014 3.21806 9.96528 3.325 9.85833L6.18333 7L3.325 4.14167C3.21806 4.03472 3.16458 3.89861 3.16458 3.73333C3.16458 3.56806 3.21806 3.43194 3.325 3.325C3.43194 3.21806 3.56806 3.16458 3.73333 3.16458C3.89861 3.16458 4.03472 3.21806 4.14167 3.325L7 6.18333L9.85833 3.325C9.96528 3.21806 10.1014 3.16458 10.2667 3.16458C10.4319 3.16458 10.5681 3.21806 10.675 3.325C10.7819 3.43194 10.8354 3.56806 10.8354 3.73333C10.8354 3.89861 10.7819 4.03472 10.675 4.14167L7.81667 7L10.675 9.85833C10.7819 9.96528 10.8354 10.1014 10.8354 10.2667C10.8354 10.4319 10.7819 10.5681 10.675 10.675C10.5681 10.7819 10.4319 10.8354 10.2667 10.8354C10.1014 10.8354 9.96528 10.7819 9.85833 10.675L7 7.81667Z" fill="var(--fill-0, #2A3A53)" fill-opacity="0.4"/>
</g>
</svg>
