<svg preserveAspectRatio="none" width="100%" height="100%" overflow="visible" style="display: block;" viewBox="0 0 13.8439 19" fill="none" xmlns="http://www.w3.org/2000/svg">
<path id="Vector" d="M6.92088 12C8.58088 12 9.92089 10.66 9.92089 9V3C9.92089 1.34 8.58088 0 6.92088 0C5.26088 0 3.92088 1.34 3.92088 3V9C3.92088 10.66 5.26088 12 6.92088 12ZM12.8309 9C12.3409 9 11.9309 9.36 11.8509 9.85C11.4409 12.2 9.39088 14 6.92088 14C4.45088 14 2.40089 12.2 1.99089 9.85C1.95523 9.61495 1.83701 9.4003 1.65742 9.24453C1.47782 9.08876 1.24861 9.00207 1.01088 9C0.400885 9 -0.0791151 9.54 0.0108849 10.14C0.500885 13.14 2.90088 15.49 5.92088 15.92V18C5.92088 18.55 6.37088 19 6.92088 19C7.47088 19 7.92088 18.55 7.92088 18V15.92C9.39259 15.7102 10.7591 15.0367 11.8219 13.9973C12.8847 12.9579 13.5884 11.6067 13.8309 10.14C13.9309 9.54 13.4409 9 12.8309 9Z" fill="var(--fill-0, #244E90)"/>
</svg>
