<svg preserveAspectRatio="none" width="100%" height="100%" overflow="visible" style="display: block;" viewBox="0 0 32 32" fill="none" xmlns="http://www.w3.org/2000/svg">
<g id="material-symbols:settings-rounded">
<path id="Vector" d="M14.4333 29.3333C13.8333 29.3333 13.3169 29.1333 12.884 28.7333C12.4511 28.3333 12.1898 27.8444 12.1 27.2667L11.8 25.0667C11.5111 24.9556 11.2391 24.8222 10.984 24.6667C10.7289 24.5111 10.4787 24.3444 10.2333 24.1667L8.16667 25.0333C7.61111 25.2778 7.05556 25.3 6.5 25.1C5.94444 24.9 5.51111 24.5444 5.2 24.0333L3.63333 21.3C3.32222 20.7889 3.23333 20.2444 3.36667 19.6667C3.5 19.0889 3.8 18.6111 4.26667 18.2333L6.03333 16.9C6.01111 16.7444 6 16.5942 6 16.4493V15.5493C6 15.4053 6.01111 15.2556 6.03333 15.1L4.26667 13.7667C3.8 13.3889 3.5 12.9111 3.36667 12.3333C3.23333 11.7556 3.32222 11.2111 3.63333 10.7L5.2 7.96667C5.51111 7.45556 5.94444 7.1 6.5 6.9C7.05556 6.7 7.61111 6.72222 8.16667 6.96667L10.2333 7.83333C10.4778 7.65556 10.7333 7.48889 11 7.33333C11.2667 7.17778 11.5333 7.04444 11.8 6.93333L12.1 4.73333C12.1889 4.15556 12.4502 3.66667 12.884 3.26667C13.3178 2.86667 13.8342 2.66667 14.4333 2.66667H17.5667C18.1667 2.66667 18.6836 2.86667 19.1173 3.26667C19.5511 3.66667 19.812 4.15556 19.9 4.73333L20.2 6.93333C20.4889 7.04444 20.7613 7.17778 21.0173 7.33333C21.2733 7.48889 21.5231 7.65556 21.7667 7.83333L23.8333 6.96667C24.3889 6.72222 24.9444 6.7 25.5 6.9C26.0556 7.1 26.4889 7.45556 26.8 7.96667L28.3667 10.7C28.6778 11.2111 28.7667 11.7556 28.6333 12.3333C28.5 12.9111 28.2 13.3889 27.7333 13.7667L25.9667 15.1C25.9889 15.2556 26 15.4058 26 15.5507V16.4493C26 16.5942 25.9778 16.7444 25.9333 16.9L27.7 18.2333C28.1667 18.6111 28.4667 19.0889 28.6 19.6667C28.7333 20.2444 28.6444 20.7889 28.3333 21.3L26.7333 24.0333C26.4222 24.5444 25.9889 24.9 25.4333 25.1C24.8778 25.3 24.3222 25.2778 23.7667 25.0333L21.7667 24.1667C21.5222 24.3444 21.2667 24.5111 21 24.6667C20.7333 24.8222 20.4667 24.9556 20.2 25.0667L19.9 27.2667C19.8111 27.8444 19.5502 28.3333 19.1173 28.7333C18.6844 29.1333 18.1676 29.3333 17.5667 29.3333H14.4333ZM16.0667 20.6667C17.3556 20.6667 18.4556 20.2111 19.3667 19.3C20.2778 18.3889 20.7333 17.2889 20.7333 16C20.7333 14.7111 20.2778 13.6111 19.3667 12.7C18.4556 11.7889 17.3556 11.3333 16.0667 11.3333C14.7556 11.3333 13.6498 11.7889 12.7493 12.7C11.8489 13.6111 11.3991 14.7111 11.4 16C11.4009 17.2889 11.8511 18.3889 12.7507 19.3C13.6502 20.2111 14.7556 20.6667 16.0667 20.6667Z" fill="var(--fill-0, #244E90)"/>
</g>
</svg>
