<svg preserveAspectRatio="none" width="100%" height="100%" overflow="visible" style="display: block;" viewBox="0 0 66.6611 11.3333" fill="none" xmlns="http://www.w3.org/2000/svg">
<g id="Status indicators">
<path id="Cellular Connection" d="M2 6.66699C2.55228 6.66699 3 7.11471 3 7.66699V9.66699C2.99982 10.2191 2.55218 10.667 2 10.667H1C0.447824 10.667 0.000175969 10.2191 0 9.66699V7.66699C0 7.11471 0.447715 6.66699 1 6.66699H2ZM6.66699 4.66699C7.21913 4.66717 7.66699 5.11482 7.66699 5.66699V9.66699C7.66682 10.219 7.21902 10.6668 6.66699 10.667H5.66699C5.11482 10.667 4.66717 10.2191 4.66699 9.66699V5.66699C4.66699 5.11471 5.11471 4.66699 5.66699 4.66699H6.66699ZM11.333 2.33301C11.8852 2.33301 12.3328 2.78087 12.333 3.33301V9.66699C12.3328 10.2191 11.8852 10.667 11.333 10.667H10.333C9.78098 10.6668 9.33318 10.219 9.33301 9.66699V3.33301C9.33318 2.78098 9.78098 2.33318 10.333 2.33301H11.333ZM16 0C16.5523 0 17 0.447715 17 1V9.66699C16.9998 10.2191 16.5522 10.667 16 10.667H15C14.4478 10.667 14.0002 10.2191 14 9.66699V1C14 0.447715 14.4477 0 15 0H16Z" fill="var(--fill-0, white)"/>
<path id="Wifi" d="M27.4482 8.42676C28.7289 7.34449 30.6051 7.34449 31.8857 8.42676C31.9501 8.48497 31.9875 8.56758 31.9893 8.6543C31.9909 8.74093 31.9564 8.82406 31.8945 8.88477L29.8896 10.9072C29.8309 10.9666 29.7506 11 29.667 11C29.5834 11 29.5031 10.9666 29.4443 10.9072L27.4385 8.88477C27.3769 8.82407 27.343 8.74072 27.3447 8.6543C27.3466 8.56762 27.3839 8.48492 27.4482 8.42676ZM24.7725 5.72949C27.5316 3.16511 31.8043 3.16517 34.5635 5.72949C34.6258 5.78963 34.6612 5.87245 34.6621 5.95898C34.6629 6.04533 34.6293 6.12818 34.5684 6.18945L33.4092 7.36035C33.2897 7.47965 33.0971 7.48151 32.9746 7.36523C32.0685 6.54547 30.8893 6.09172 29.667 6.0918C28.4456 6.09232 27.2677 6.54617 26.3623 7.36523C26.2398 7.48158 26.0462 7.47986 25.9268 7.36035L24.7686 6.18945C24.7075 6.12825 24.6731 6.0454 24.6738 5.95898C24.6746 5.87251 24.7103 5.78961 24.7725 5.72949ZM22.0967 3.03906C26.3285 -1.01301 33.0044 -1.01285 37.2363 3.03906C37.2976 3.09926 37.3325 3.18173 37.333 3.26758C37.3334 3.35334 37.2997 3.43622 37.2393 3.49707L36.0791 4.66699C35.9595 4.78709 35.765 4.78817 35.6436 4.66992C34.0312 3.13852 31.8916 2.28428 29.667 2.28418C27.4421 2.28419 25.302 3.13829 23.6895 4.66992C23.5682 4.78829 23.3744 4.7871 23.2549 4.66699L22.0938 3.49707C22.0333 3.43619 21.9995 3.35331 22 3.26758C22.0006 3.18173 22.0354 3.09922 22.0967 3.03906Z" fill="var(--fill-0, white)"/>
<g id="Battery">
<rect id="Border" opacity="0.35" x="42.833" y="0.5" width="21" height="10.3333" rx="2.16667" stroke="var(--stroke-0, white)"/>
<path id="Cap" opacity="0.4" d="M65.333 3.66667V7.66667C66.1377 7.32789 66.6611 6.5398 66.6611 5.66667C66.6611 4.79353 66.1377 4.00544 65.333 3.66667" fill="var(--fill-0, white)"/>
<rect id="Capacity" x="44.333" y="2" width="18" height="7.33333" rx="1.33333" fill="var(--fill-0, white)"/>
</g>
</g>
</svg>
